<svg xmlns="http://www.w3.org/2000/svg" viewBox="0 0 150.16 33.92"><defs><style>.cls-1{fill:#231f20;}</style></defs><title>logo</title><g id="Layer_2" data-name="Layer 2"><g id="Layer_1-2" data-name="Layer 1"><path class="cls-1" d="M4.66,33.61C1.43,33.61,0,31.76,0,29.11a12,12,0,0,1,.64-3.49A67.35,67.35,0,0,1,7.3,13c.79-1.06,1.43-1.16,2.12-.37,1,1.06,1.43,3.33.05,6C8.47,20.91,6,24.88,5.13,27a9.29,9.29,0,0,0-.74,3.18c0,.85.21,1.32.79,1.32,2.12,0,4.87-3.55,6.51-7.15.42-1,1.11-.85,1.59.11a4,4,0,0,1-.26,3.6A9.93,9.93,0,0,1,4.66,33.61Zm6.77-27c1.48,0,2.91,1.91,2.91,3.44s-.79,2.65-2.12,2.65A3.29,3.29,0,0,1,9.1,9.47C9.1,8,10.22,6.62,11.43,6.62Z"/><path class="cls-1" d="M28.53,22.33c-1.11,4.39-4.5,9.58-8.52,11a5.93,5.93,0,0,1-1.9.32,6.44,6.44,0,0,1-5.19-2.7,7.48,7.48,0,0,1-1.48-4.6,15.88,15.88,0,0,1,2.22-7.41C16,14.66,19.37,12,22.86,12a3.93,3.93,0,0,1,3.49,2c1.48,1.75,3,2.12,2.49,6.62,1.38,0,1.48.48,1.06,1A2.21,2.21,0,0,1,28.53,22.33Zm-11.7,8.57c1.38,0,3.49-2,5.45-5.56A18.1,18.1,0,0,0,24,21.54a6.71,6.71,0,0,1-3.23-4.29,17,17,0,0,0-3,4,17.61,17.61,0,0,0-2.22,7.46C15.56,30.27,16,30.91,16.83,30.91Zm8.79-14.55c0-.79-.42-1.11-.79-1.11s-.79.42-.79,1.27a5.29,5.29,0,0,0,.85,3A8.86,8.86,0,0,0,25.62,16.35Z"/><path class="cls-1" d="M27.47,25.19A7.18,7.18,0,0,1,29.11,25a6.53,6.53,0,0,1,4.13,1.32c2.06,1.69,5.56,4.34,8.63,4.34a4,4,0,0,0,2.8-.85,1.44,1.44,0,0,0-.05-2.22c-3.81-3-11.17-5.82-11.17-11.22,0-7.2,8.26-13.5,13-15.51A9.51,9.51,0,0,1,50.54,0a4.88,4.88,0,0,1,3.23,1.11,9.92,9.92,0,0,1,2.8,4.55C57.1,7.83,55.78,10,55,11.11a66.38,66.38,0,0,0-3.55,5.72c-.48.85-1.06,1.27-2.06.21a3.91,3.91,0,0,1-1.27-2.86c0-1.16.69-3.18,2.43-5.5,1.32-2,2.75-4.29,2-4.82C50.59,2.43,39,10.21,38.74,16.3c-.16,3.49,7.09,6.51,9.16,8A3.44,3.44,0,0,1,49.48,27c0,1.22-.69,2.59-2.06,4.23a9.46,9.46,0,0,1-7.15,2.7c-3.86,0-9-2.17-13.18-7C26.35,26,26.72,25.46,27.47,25.19Z"/><path class="cls-1" d="M54.35,23.29A110.62,110.62,0,0,1,59.54,12.7a4.12,4.12,0,0,1-3-1.43c-.74-1.11-.21-1.64,1-1.59a30.24,30.24,0,0,0,3.81-.11c1.64-2.86,2.75-4.6,4-6.35.79-1.16,1.43-1.11,2-.11a4.76,4.76,0,0,1,.58,2.17,9.32,9.32,0,0,1-.85,3.65A3.82,3.82,0,0,1,70,10.64c.53,1,.16,1.59-1.11,1.43a16,16,0,0,0-3.49.16c-2,3.44-5,8.68-6.88,12.7a10,10,0,0,0-1,4c0,1.59.53,2.7,1.43,2.7,2.06,0,4.82-3.33,6.67-7.3.58-1.27,1.8-1.38,2.17.05a4.23,4.23,0,0,1-.53,3.12c-.74,1.59-4.29,6.14-8.73,6.14-2.81,0-5.24-2.28-5.24-5.93A11.58,11.58,0,0,1,54.35,23.29Z"/><path class="cls-1" d="M80.55,33.5c-2.75.16-4.45-1.16-4.87-3.28C74,32,71.92,33.4,69.64,33.4c-3.07,0-4.76-2.22-4.76-5.45a14,14,0,0,1,2.75-7.78C71.87,14.08,76.15,11.7,79,11.7a3.32,3.32,0,0,1,3.39,2.22c.42-.69.79-1.22,1-1.53.69-.85,1.43-1.11,2.12-.37a4,4,0,0,1,1,2.75A7.58,7.58,0,0,1,85.63,18c-.64,1.43-1.48,2.7-2.28,4.18A49.74,49.74,0,0,0,80.76,27a10.66,10.66,0,0,0-.79,3c0,.85.26,1.32.79,1.27C83.83,31,88.12,25,90.55,17.52A2.57,2.57,0,0,1,89,15c0-2.7,3.28-6.56,5-6.67,1.11-.05,1.64.69,1.64,1.85a16.81,16.81,0,0,1-.9,4.5,15.14,15.14,0,0,0,4.71-2.22c1-.69,1.53-.85,2.28-.05A5.62,5.62,0,0,1,103.2,16a3.77,3.77,0,0,1-.79,2.12c-2.33,2.65-5,6.3-5.82,8.89a7.59,7.59,0,0,0-.37,2.33c0,1.32.42,2.17,1.22,2.22,1.85.16,4.82-3.33,6.51-7.2.37-.85,1.27-.79,1.69.26a4.62,4.62,0,0,1-.16,3.55,9.58,9.58,0,0,1-8.36,5.5,5.12,5.12,0,0,1-5.24-5.5,10.92,10.92,0,0,1,.42-2.81c.79-2.65,3.17-5.87,5.24-8.31a10.56,10.56,0,0,1-3.86,1C91.08,25.3,86.26,33.08,80.55,33.5ZM79.7,14.93c-1.43,0-4.92,3.17-7.73,7.62a14.23,14.23,0,0,0-2.38,6.93c0,.9.16,1.59.58,1.59,1.75,0,4.29-3.07,6.88-7.62,2-3.55,3-6.14,3-7.52C80,15.24,79.91,14.93,79.7,14.93Z"/><path class="cls-1" d="M104.2,23.29a110.79,110.79,0,0,1,5.19-10.59,4.12,4.12,0,0,1-3-1.43c-.74-1.11-.21-1.64,1-1.59a30.23,30.23,0,0,0,3.81-.11c1.64-2.86,2.75-4.6,4-6.35.79-1.16,1.43-1.11,2-.11a4.76,4.76,0,0,1,.58,2.17,9.31,9.31,0,0,1-.85,3.65,3.82,3.82,0,0,1,2.91,1.69c.53,1,.16,1.59-1.11,1.43a16,16,0,0,0-3.49.16c-2,3.44-5,8.68-6.88,12.7a10,10,0,0,0-1,4c0,1.59.53,2.7,1.43,2.7,2.06,0,4.82-3.33,6.67-7.3.58-1.27,1.8-1.38,2.17.05a4.23,4.23,0,0,1-.53,3.12c-.74,1.59-4.29,6.14-8.73,6.14-2.81,0-5.24-2.28-5.24-5.93A11.58,11.58,0,0,1,104.2,23.29Z"/><path class="cls-1" d="M149.67,28.05a9.71,9.71,0,0,1-8.36,5.56c-3.33,0-5.19-2.33-5.19-5.45a9.19,9.19,0,0,1,.53-2.91A25.67,25.67,0,0,1,141.73,17a10.64,10.64,0,0,1-3.92.9c-4.34,9-10,15.51-16.46,15.61-4.87.05-7.57-3.12-7.57-7.3a13.89,13.89,0,0,1,1.59-6.09c2.75-5.4,7.09-8.36,10.11-8.36a3.36,3.36,0,0,1,1.8.42,12.39,12.39,0,0,1,3.28,2.75,3.74,3.74,0,0,1,.48,1.75,10,10,0,0,1-2.22,5.56,7.68,7.68,0,0,1-5.88,3.23,6.4,6.4,0,0,1-3.76-1.16,11.18,11.18,0,0,0-.48,3.12c0,2.43,1,4,2.43,4,5.29,0,10.8-7.62,13.6-14.08A2.71,2.71,0,0,1,133.26,15c0-2.8,3.55-6.67,5.35-6.72,1.11,0,1.53.69,1.53,1.85a16,16,0,0,1-1,4.45,15.79,15.79,0,0,0,4.6-2.22c.85-.53,1.59-.9,2.22-.05A6.75,6.75,0,0,1,147.55,16a3,3,0,0,1-.9,2c-2.28,2.65-4.87,6.25-5.82,8.94a8.85,8.85,0,0,0-.37,2.28c0,1.38.42,2.28,1.16,2.28,1.9,0,4.92-3.23,6.51-6.93.48-1,1.27-1.22,1.8-.05A4.76,4.76,0,0,1,149.67,28.05Zm-29.74-5.72a2.56,2.56,0,0,0,1.16.32c1.38,0,2.81-1.53,3.86-3,1.48-1.91,2.7-4.5,2.17-4.92-1-.74-4.55,2.33-6.72,6.62A7.59,7.59,0,0,0,119.92,22.33Z"/></g></g></svg>